<mxfile host="app.diagrams.net" agent="Mozilla/5.0 (Windows NT 10.0; Win64; x64) AppleWebKit/537.36 (KHTML, like Gecko) Chrome/129.0.0.0 Safari/537.36" version="24.7.17">
  <diagram name="Page-1" id="6xs0rHRi33AJtmqUJFMh">
    <mxGraphModel dx="1196" dy="527" grid="1" gridSize="10" guides="1" tooltips="1" connect="1" arrows="1" fold="1" page="1" pageScale="1" pageWidth="827" pageHeight="1169" math="0" shadow="0">
      <root>
        <mxCell id="0" />
        <mxCell id="1" parent="0" />
        <mxCell id="dtrRUTYJO1EXD4Yrg5B--1" value="User" style="rounded=0;whiteSpace=wrap;html=1;" vertex="1" parent="1">
          <mxGeometry x="130" y="100" width="120" height="60" as="geometry" />
        </mxCell>
        <mxCell id="dtrRUTYJO1EXD4Yrg5B--2" value="&lt;div&gt;1.0&lt;/div&gt;Login / Register User" style="ellipse;whiteSpace=wrap;html=1;aspect=fixed;" vertex="1" parent="1">
          <mxGeometry x="450" y="100" width="90" height="90" as="geometry" />
        </mxCell>
        <mxCell id="dtrRUTYJO1EXD4Yrg5B--3" value="Login/Registration&amp;nbsp;&lt;div&gt;Details&lt;/div&gt;" style="endArrow=classic;html=1;rounded=0;entryX=0;entryY=0.5;entryDx=0;entryDy=0;exitX=1;exitY=0.5;exitDx=0;exitDy=0;" edge="1" parent="1" source="dtrRUTYJO1EXD4Yrg5B--1" target="dtrRUTYJO1EXD4Yrg5B--2">
          <mxGeometry width="50" height="50" relative="1" as="geometry">
            <mxPoint x="320" y="220" as="sourcePoint" />
            <mxPoint x="370" y="170" as="targetPoint" />
          </mxGeometry>
        </mxCell>
        <mxCell id="dtrRUTYJO1EXD4Yrg5B--4" value="2.0&lt;div&gt;Virtual Triage&amp;nbsp;&lt;/div&gt;" style="ellipse;whiteSpace=wrap;html=1;aspect=fixed;" vertex="1" parent="1">
          <mxGeometry x="450" y="270" width="90" height="90" as="geometry" />
        </mxCell>
        <mxCell id="dtrRUTYJO1EXD4Yrg5B--5" value="Answer Virtual Triage Questions" style="endArrow=classic;html=1;rounded=0;entryX=0.5;entryY=0;entryDx=0;entryDy=0;exitX=0.5;exitY=1;exitDx=0;exitDy=0;" edge="1" parent="1" source="dtrRUTYJO1EXD4Yrg5B--2" target="dtrRUTYJO1EXD4Yrg5B--4">
          <mxGeometry width="50" height="50" relative="1" as="geometry">
            <mxPoint x="450" y="270" as="sourcePoint" />
            <mxPoint x="500" y="220" as="targetPoint" />
          </mxGeometry>
        </mxCell>
        <mxCell id="dtrRUTYJO1EXD4Yrg5B--6" value="Nurse" style="rounded=0;whiteSpace=wrap;html=1;" vertex="1" parent="1">
          <mxGeometry x="120" y="320" width="120" height="60" as="geometry" />
        </mxCell>
        <mxCell id="dtrRUTYJO1EXD4Yrg5B--7" value="Assess Patient triage responses" style="endArrow=classic;html=1;rounded=0;entryX=0;entryY=0.5;entryDx=0;entryDy=0;exitX=1;exitY=0.5;exitDx=0;exitDy=0;" edge="1" parent="1" source="dtrRUTYJO1EXD4Yrg5B--6" target="dtrRUTYJO1EXD4Yrg5B--4">
          <mxGeometry width="50" height="50" relative="1" as="geometry">
            <mxPoint x="270" y="315" as="sourcePoint" />
            <mxPoint x="380" y="310" as="targetPoint" />
          </mxGeometry>
        </mxCell>
        <mxCell id="dtrRUTYJO1EXD4Yrg5B--8" value="3.0&amp;nbsp;&lt;div&gt;ED required/not required&lt;/div&gt;" style="ellipse;whiteSpace=wrap;html=1;aspect=fixed;" vertex="1" parent="1">
          <mxGeometry x="369" y="410" width="90" height="90" as="geometry" />
        </mxCell>
        <mxCell id="dtrRUTYJO1EXD4Yrg5B--9" value="Triage Results" style="endArrow=classic;html=1;rounded=0;entryX=0.603;entryY=0.017;entryDx=0;entryDy=0;entryPerimeter=0;exitX=0;exitY=1;exitDx=0;exitDy=0;" edge="1" parent="1" source="dtrRUTYJO1EXD4Yrg5B--4" target="dtrRUTYJO1EXD4Yrg5B--8">
          <mxGeometry width="50" height="50" relative="1" as="geometry">
            <mxPoint x="390" y="400" as="sourcePoint" />
            <mxPoint x="440" y="350" as="targetPoint" />
          </mxGeometry>
        </mxCell>
        <mxCell id="dtrRUTYJO1EXD4Yrg5B--10" value="4.0&lt;div&gt;Appointment&lt;/div&gt;" style="ellipse;whiteSpace=wrap;html=1;aspect=fixed;" vertex="1" parent="1">
          <mxGeometry x="30" y="420" width="100" height="100" as="geometry" />
        </mxCell>
        <mxCell id="dtrRUTYJO1EXD4Yrg5B--11" value="ED Required" style="endArrow=classic;html=1;rounded=0;entryX=1;entryY=0.5;entryDx=0;entryDy=0;exitX=0.008;exitY=0.573;exitDx=0;exitDy=0;exitPerimeter=0;" edge="1" parent="1" source="dtrRUTYJO1EXD4Yrg5B--8" target="dtrRUTYJO1EXD4Yrg5B--10">
          <mxGeometry width="50" height="50" relative="1" as="geometry">
            <mxPoint x="310" y="530" as="sourcePoint" />
            <mxPoint x="360" y="480" as="targetPoint" />
          </mxGeometry>
        </mxCell>
        <mxCell id="dtrRUTYJO1EXD4Yrg5B--13" value="Book/cancel appointments" style="endArrow=classic;html=1;rounded=0;entryX=0.5;entryY=0;entryDx=0;entryDy=0;exitX=0;exitY=0.5;exitDx=0;exitDy=0;" edge="1" parent="1" source="dtrRUTYJO1EXD4Yrg5B--1" target="dtrRUTYJO1EXD4Yrg5B--10">
          <mxGeometry width="50" height="50" relative="1" as="geometry">
            <mxPoint x="480" y="400" as="sourcePoint" />
            <mxPoint x="530" y="350" as="targetPoint" />
          </mxGeometry>
        </mxCell>
      </root>
    </mxGraphModel>
  </diagram>
</mxfile>
